    <svg
            width="15"
            height="15"
            viewBox="0 0 15 15"
            fill="none"
            xmlns="http://www.w3.org/2000/svg"
          >
            <circle
              cx="7.5"
              cy="7.5"
              r="7.5"
              transform="matrix(-1 0 0 1 15 0)"
              fill="#7D8693"
            />
            <path
              d="M8.2897 8.81739C8.2897 8.36232 8.23463 8 8.12448 7.73043C8.01434 7.45797 7.81289 7.1913 7.52013 6.93043C7.22448 6.66957 7.02738 6.45652 6.92883 6.2913C6.83028 6.12609 6.781 5.95217 6.781 5.76956C6.781 5.21884 7.03463 4.94348 7.54187 4.94348C7.78535 4.94348 7.97955 5.01884 8.12448 5.16956C8.26941 5.31739 8.34477 5.52029 8.35057 5.77826H9.76361C9.75782 5.15797 9.55782 4.67246 9.16361 4.32174C8.76651 3.96812 8.22593 3.7913 7.54187 3.7913C6.85202 3.7913 6.31724 3.95942 5.93753 4.29565C5.55782 4.62899 5.36796 5.1 5.36796 5.7087C5.36796 5.98406 5.43028 6.24493 5.55492 6.4913C5.67666 6.73768 5.8926 7.01014 6.20274 7.3087L6.5984 7.68261C6.84477 7.92029 6.98535 8.19855 7.02013 8.51739L7.04187 8.81739H8.2897ZM8.43318 10.3174C8.43318 10.1 8.35926 9.92029 8.21144 9.77826C8.06361 9.63623 7.87376 9.56522 7.64187 9.56522C7.40999 9.56522 7.22013 9.63623 7.07231 9.77826C6.92448 9.92029 6.85057 10.1 6.85057 10.3174C6.85057 10.5319 6.92303 10.7087 7.06796 10.8478C7.21289 10.987 7.40419 11.0565 7.64187 11.0565C7.87955 11.0565 8.07086 10.987 8.21579 10.8478C8.36071 10.7087 8.43318 10.5319 8.43318 10.3174Z"
              fill="white"
            />
          </svg>